PathFileType        4      (X/Y/Z)      C:\Users\pc\Desktop\IMUTRC\Sujet_07\Sujet_07_velo_80.trc         
DataRate	CameraRate	NumFrames	NumMarkers	Units	OrigDataRate	OrigDataStartFrame	OrigNumFrames
60.0	60.0	4	64	mm	60.0	820	936
Frame#	Time	pHipOrigin			pRightASI			pLeftASI			pRightCSI			pLeftCSI			pRightIschialTub			pLeftIschialTub			pSacrum			pL5SpinalProcess			pL3SpinalProcess			pT12SpinalProcess			pIJ			pT4SpinalProcess			pT8SpinalProcess			pPX			pC7SpinalProcess			pTopOfHead			pRightAuricularis			pLeftAuricularis			pBackOfHead			pRightAcromion			pLeftAcromion			pRightArmLatEpicondyle			pRightArmMedEpicondyle			pLeftArmLatEpicondyle			pLeftArmMedEpicondyle			pRightUlnarStyloid			pRightRadialStyloid			pRightOlecranon			pLeftUlnarStyloid			pLeftRadialStyloid			pLeftOlecranon			pRightTopOfHand			pRightPinky			pRightBallHand			pLeftTopOfHand			pLeftPinky			pLeftBallHand			pRightGreaterTrochanter			pRightKneeLatEpicondyle			pRightKneeMedEpicondyle			pRightPatella			pLeftGreaterTrochanter			pLeftKneeLatEpicondyle			pLeftKneeMedEpicondyle			pLeftPatella			pRightTibialTub			pRightLatMalleolus			pRightMedMalleolus			pLeftTibialTub			pLeftLatMalleolus			pLeftMedMalleolus			pRightHeelFoot			pRightFirstMetatarsal			pRightFifthMetatarsal			pRightPivotFoot			pRightHeelCenter			pRightToe			pLeftHeelFoot			pLeftFirstMetatarsal			pLeftFifthMetatarsal			pLeftPivotFoot			pLeftHeelCenter			pLeftToe			
		X1	Y1	Z1	X2	Y2	Z2	X3	Y3	Z3	X4	Y4	Z4	X5	Y5	Z5	X6	Y6	Z6	X7	Y7	Z7	X8	Y8	Z8	X9	Y9	Z9	X10	Y10	Z10	X11	Y11	Z11	X12	Y12	Z12	X13	Y13	Z13	X14	Y14	Z14	X15	Y15	Z15	X16	Y16	Z16	X17	Y17	Z17	X18	Y18	Z18	X19	Y19	Z19	X20	Y20	Z20	X21	Y21	Z21	X22	Y22	Z22	X23	Y23	Z23	X24	Y24	Z24	X25	Y25	Z25	X26	Y26	Z26	X27	Y27	Z27	X28	Y28	Z28	X29	Y29	Z29	X30	Y30	Z30	X31	Y31	Z31	X32	Y32	Z32	X33	Y33	Z33	X34	Y34	Z34	X35	Y35	Z35	X36	Y36	Z36	X37	Y37	Z37	X38	Y38	Z38	X39	Y39	Z39	X40	Y40	Z40	X41	Y41	Z41	X42	Y42	Z42	X43	Y43	Z43	X44	Y44	Z44	X45	Y45	Z45	X46	Y46	Z46	X47	Y47	Z47	X48	Y48	Z48	X49	Y49	Z49	X50	Y50	Z50	X51	Y51	Z51	X52	Y52	Z52	X53	Y53	Z53	X54	Y54	Z54	X55	Y55	Z55	X56	Y56	Z56	X57	Y57	Z57	X58	Y58	Z58	X59	Y59	Z59	X60	Y60	Z60	X61	Y61	Z61	X62	Y62	Z62	X63	Y63	Z63	X64	Y64	Z64	
820	13.65	0.0	1249.97763	7.653905517926474E-14	128.68656453999577	1328.98769	114.68323196523596	70.41436797443552	1315.91835	-163.2484629145731	104.24012624967534	1409.92843	90.1939051481682	56.24839640715156	1399.16109	-138.41526042146117	-61.8485036194741	1217.60133	74.30291064103685	-85.79364801749348	1212.25479	-40.01526266702033	-56.94688506121389	1295.57178	9.822838258807655	16.612706528694005	1381.33927	-9.615591758929135	101.65997573995526	1467.77508	-33.65422307782192	182.90964469435556	1543.14651	-57.055817804994994	443.31998228954933	1509.35932	-118.84159333603448	356.3589128480529	1640.27541	-105.59710278283727	272.77155812087983	1604.78029	-82.60197752509094	331.1987855368119	1456.04238	-87.71160395486648	410.56306689429465	1661.73585	-117.94665157221804	678.1456447050622	1657.13188	-181.16497156072003	596.4217195617812	1628.46846	-90.55568101860179	562.7126697054814	1651.33979	-229.54649399261803	572.2286700333306	1695.30027	-149.1968300452948	439.38011848289796	1602.25553	70.9530909519875	367.5372697870823	1613.39417	-295.15692494637625	473.00451022986294	1318.59163	57.26847607264457	440.00094414120537	1315.91835	1.8578693691566979	385.09750996187614	1312.42825	-281.7601931222315	351.36344180775956	1308.93814	-226.89543313331032	540.6794671201089	1067.74956	35.547252338705086	590.9584500834656	1087.94762	35.93691929328134	431.10030675767155	1311.38864	31.53166553718415	436.3494460673851	1056.68519	-268.2042304432468	485.344592213674	1073.69017	-283.56121289288166	343.8151655647422	1306.48764	-248.57397517083902	729.0881404108954	1038.12079	141.83843761241735	651.8001731710618	1012.50193	92.58596368552816	599.2628176781932	1048.59111	45.01871269448444	574.3598393093412	994.82863	-423.03716351087525	519.6920919714745	984.35832	-345.8746275863519	488.2957095901307	1032.18019	-290.603398128004	39.42060368646058	1225.99244	171.8704915500134	314.528699058253	878.83831	139.5780527925646	317.7846134496144	880.91752	53.74046364163189	351.87844821049026	912.25422	95.97554961093695	-27.52449740485318	1230.29938	-177.17809204199654	270.8698304374272	925.62058	-300.8926685551907	305.66957854406485	918.26908	-222.75148036648602	318.4742538563671	958.81371	-268.6922485818165	372.30364761739855	846.38775	100.9941664834461	288.42773831918305	445.09986	159.83570291899414	293.3691600120112	439.82757	94.69264948539276	303.3529392001823	866.14027	-273.3925233200684	-15.878863473076777	616.41207	-188.28950169818143	12.542072070346101	608.61502	-129.69400605803006	240.28309568986722	365.71852	122.77889006521563	407.68317800068905	344.33234	106.84386231166016	397.0722491687165	346.56007	185.51969016413412	424.6951525845811	342.62442	148.2199779952887	280.647646046532	365.42149	128.1626180227998	515.2994127336347	329.33231	160.7445760349399	-83.84452310533311	590.19915	-124.03496604518038	29.441662005130425	464.33257	-131.3411344521561	-1.7701124532174646	464.85237	-204.409715295917	27.636640258165457	447.40184	-172.76928507764606	-56.48208529014456	562.42682	-135.9329785600309	81.20855669771527	375.81755	-196.20200620978076	
821	13.667	0.0	1249.97763	7.653905517926474E-14	130.01786559136792	1328.31937	113.56547090408947	68.813923253035	1316.3639	-163.743751342402	105.50445178024859	1409.40863	89.63768909190885	55.088176397377254	1399.53238	-138.48490041657402	-61.113927042415824	1217.45282	74.8127666875219	-86.30350406397851	1212.55182	-39.28068608996206	-56.7566163960727	1295.64604	10.532903263694807	16.731371007895063	1381.33927	-9.37558466595907	101.68981760050016	1467.70082	-34.15147069647808	182.77640759649836	1542.998	-58.16168438205326	442.8433551819178	1508.98803	-121.43189096935212	356.0009552196225	1639.97838	-107.94740198343885	272.51237206462054	1604.55752	-84.38077410703636	330.8381584340675	1455.81961	-89.46321949032689	410.1235697866631	1661.36456	-120.60126025202068	677.5258278858045	1656.24079	-184.6953973383799	595.8933948354936	1627.65162	-93.94753574977655	561.9443378862236	1650.81998	-232.81968424459183	571.7547074000129	1694.63195	-152.38580268349955	439.83366190583973	1602.18128	68.38535070001377	365.9819534886235	1612.72585	-297.5125580956057	472.8341517922597	1318.51737	56.22692554207131	439.89488808983316	1315.69558	0.8534438385834686	384.0984133799307	1311.90845	-282.8514870806336	350.3643365655601	1308.4926	-227.9867320917124	540.4076639757666	1067.60105	34.53286919436281	590.6740335112945	1087.72485	35.6869632467963	431.01415727358335	1311.24013	30.195740820670803	435.63210658329683	1056.23964	-268.4469020105308	484.69155011581677	1073.24462	-283.76675079991156	342.7517579363117	1306.0421	-249.70239912924112	728.3880243595233	1038.19505	141.8629541845885	651.3400692126597	1012.50193	92.49180711824414	598.9883537197911	1048.4426	44.60301821528345	573.8254753509391	994.16031	-423.0026979851892	519.1305419665873	983.83851	-345.9415944468968	487.64266749227346	1031.73464	-290.8089360350339	39.77927159837766	1225.99244	171.9918205035284	296.35678016995365	864.65512	143.5774395781195	298.8482761237119	865.0264	57.72724199935791	334.86213432707814	895.24923	99.01296981454647	-27.653110837569216	1231.85879	-177.25234704199653	283.3420543425779	941.88299	-305.2674340422869	318.1417987889615	934.60574	-227.12625951383623	329.4693175242055	976.48701	-272.2906974869672	354.82189582695645	831.98179	105.13478878979998	279.02192651188955	428.54042	160.23592685565768	284.5991482096049	423.93645	95.03123551013923	314.9394020539608	882.62545	-277.4212256628223	-6.7640287734148075	636.3131	-191.60157850058778	21.55546072352304	628.44179	-132.97889315369733	227.77055100705667	351.83235	121.72843318781933	394.0674448753881	323.24319	105.32796386697986	383.5851208158776	324.57983	184.0780417194538	410.9507973663101	319.97586	146.6298195506084	268.09797636372144	349.60463	127.1764635316345	500.70908727805136	302.52533	158.83748102297562	-74.99421207081232	609.3576	-127.92849441975784	38.98480461182233	484.08508	-135.6921023108218	8.114469632675494	485.05043	-208.90653368026875	37.41978129757339	467.45139	-177.2389224155128	-47.391767162653714	581.80804	-139.94517141380945	91.50884692306335	396.31264	-200.9732922127887	
822	13.683	0.0	1249.97763	7.653905517926474E-14	131.48773768922516	1327.65105	112.35621774997291	67.14917614540347	1316.80944	-164.27616477023088	106.80591231082184	1408.88883	89.01715332891045	53.86363668086388	1399.90366	-138.59167541168685	-60.35216441887252	1217.37856	75.42405512023792	-86.82330906397851	1212.84885	-38.380357419933716	-56.539175344700524	1295.7203	11.34440431506699	16.924295487096124	1381.33927	-9.264199665959069	101.74684416778413	1467.62656	-34.54726360839517	182.64317049864115	1542.84948	-59.267550959111524	442.3024133675473	1508.76526	-124.05933226292372	355.54155654470696	1639.75561	-110.27052013755538	272.1888799618762	1604.409	-86.19670934923583	330.6161023778082	1455.59684	-91.30632711875735	409.6568916325466	1661.14179	-123.35730997830841	676.9232568197708	1655.42395	-187.95863363683867	595.3551261556909	1626.9833	-97.17364704823534	561.2403171134509	1650.37444	-236.05574449656558	571.3450521529263	1694.11215	-155.53765898195837	440.2600192822964	1602.18128	65.716178061809	364.3895071901647	1612.20605	-299.8038801983501	472.6909620806336	1318.59163	55.28679739772908	439.853134424692	1315.54707	-0.11385669198978592	383.0993131377312	1311.53716	-283.9427946992898	349.23663155089866	1308.19557	-229.1522897103686	540.1630505381635	1067.45253	33.619932096505615	590.4167979856084	1087.57633	35.53844824679627	430.92799412924114	1311.24013	28.859819764411466	434.8776284389546	1055.94261	-268.6252675313297	483.9370719714745	1072.94759	-283.94511632071055	341.7254853078813	1305.74507	-250.89514279438228	727.8165354011212	1038.26931	141.96172209650553	650.8799515940035	1012.50193	92.39765421121422	598.676756101135	1048.36834	44.251621122313374	573.3825948252529	993.64051	-422.82966641301806	518.5590443479311	983.46722	-345.84283153497967	486.97968144090123	1031.43761	-290.84873050934783	40.672320789204946	1226.43799	172.07869393135726	278.67943942599663	852.2541	148.20535188936057	279.9092656632415	850.62044	62.31269036197113	317.9916759693521	879.95218	102.39182083710298	-27.88316897702431	1233.49245	-177.29943465576554	294.91857324284143	958.44242	-309.1303929523247	329.7826287357101	951.23944	-230.95208842387405	339.46724380092576	994.30883	-275.35015376857456	337.05306299002933	819.06097	109.62413005455595	267.34734998319556	414.0602	161.29842656020685	273.421819299567	409.97603	96.12357707523327	326.21888229397035	899.48192	-280.76971852148796	3.5952298895364123	654.28343	-195.13838083356737	31.63759095375825	646.70916	-136.33271496099078	212.5563236909285	340.69372	121.34752789725559	377.1612807448894	303.78771	104.31319910210222	366.7432763921179	304.159	183.10041195457617	393.8145787566104	298.88671	145.5679808322158	252.75512695462322	336.31252	126.72129824107074	482.59828865857725	276.53518	157.3844643975531	-64.53084788706215	625.69426	-132.0911528041096	51.32379141911581	502.35244	-141.1727343749762	20.693468532939036	503.91185	-214.50583888387828	50.17446758406792	486.31281	-182.99402709832336	-36.44839745321744	598.81302	-144.34516375656332	105.44631926093004	416.21367	-207.58892243105961	
823	13.7	0.0	1249.97763	7.653905517926474E-14	132.8833547870824	1326.90847	111.2755780285724	65.51160142400295	1317.25499	-164.70714215157471	108.1345488878801	1408.22051	88.49806727265111	52.73058905732058	1400.27495	-138.55987936031468	-59.61758784181424	1217.23005	75.93391116672295	-87.33316511046354	1213.22014	-37.64578084287544	-56.32173429332833	1295.79455	12.155905366439177	17.042959966297182	1381.33927	-9.024192572989005	101.80386707481406	1467.55231	-34.943070180566295	182.53711444726898	1542.70097	-60.271976489684775	441.8900973064008	1508.61674	-126.61249989624129	355.08215786979144	1639.53283	-112.59363829167192	271.9197412918478	1604.18623	-87.80976749846522	330.3197826612948	1455.44832	-93.02082631447178	409.11595847843	1660.99327	-125.98474627188004	676.2835470934831	1654.90415	-191.15756388881246	594.6782864294032	1626.53776	-100.30826625372406	560.5535334336482	1650.15167	-239.02462026933833	570.7968258593546	1693.74086	-158.59802318744713	440.7778737517231	1602.40405	63.185567809835234	362.69562850547493	1611.68625	-302.0680162546094	472.6763981222315	1318.74014	54.42094291364085	439.7371344198048	1315.47281	-0.9525387898469877	382.0730355093008	1311.24013	-285.1355297041769	348.27465630869915	1307.97279	-230.3078997152557	539.9084794867913	1067.52679	32.872742091618456	590.1966924599222	1087.57633	35.32562220031122	430.8318870313839	1311.31438	27.689642140868155	434.1974139548664	1055.71984	-268.9322414848447	483.2840298736173	1072.72482	-284.15065422774046	340.6991990191967	1305.37378	-252.08788279926947	727.245032782465	1038.49208	142.0604936686767	650.4198476356015	1012.57619	92.30349764393026	598.3651621427327	1048.36834	43.90023768959731	573.105457732283	993.12071	-422.64669088733206	518.1532938222451	983.09594	-345.7341110092936	486.35382538952905	1031.21484	-290.9528360301468	41.703927366263216	1226.73502	172.07407892647012	262.24652264532887	841.85804	152.60853867002834	262.20474387279944	838.44219	66.8391616267271	302.1528278489384	866.80859	105.76607051502643	-28.15035345622536	1235.12612	-177.2821975627955	305.18367899876273	974.48206	-312.20707766664816	339.9834234451464	967.27907	-234.06590313819748	348.2551979797888	1011.38807	-277.6505169009526	320.36291934392955	807.55105	113.87880683522373	253.49817896063905	401.73344	162.56309441398537	260.06988223541265	398.09482	97.4180904498107	336.65702462206275	915.67007	-283.4035313703793	14.573073784912822	669.35771	-199.00400421791912	42.30116409591055	662.08047	-139.9510654334255	195.66472717908587	331.6343	121.19863127672019	358.2635026462142	287.07976	103.77773091917001	347.61543015398763	286.41144	182.51787347838305	374.55812408576406	280.61935	144.91117869576863	235.53204357734856	325.17389	126.55251371350542	462.25586031770257	253.58959	156.52940383327703	-53.053100558969724	638.39231	-136.52561433280363	65.69420032915366	518.02079	-147.79565273270225	35.331056922177964	520.32278	-221.14598567432037	65.1263230662769	502.79799	-189.88146046093655	-24.34212959943894	612.40216	-149.27419476934554	122.03379027371227	434.7038	-215.67566499427446	
